<?xml version="1.0" encoding="UTF-8"?>
<svg id="Capa_1" xmlns="http://www.w3.org/2000/svg" version="1.1" viewBox="0 0 423.5 247.46">
  <!-- Generator: Adobe Illustrator 30.0.0, SVG Export Plug-In . SVG Version: 2.1.1 Build 123)  -->
  <defs>
    <style>
      .st0 {
        fill: #fff;
      }
    </style>
  </defs>
  <path class="st0" d="M45.66,137.25v-72.61h30.29c14.73,0,25,5.91,25,19.19,0,5.6-2.28,11.31-8.19,15.56,7.05,4.36,9.96,10.68,9.96,17.22,0,12.76-9.86,20.64-25,20.64h-32.05ZM58.01,75.84v18.67h15.46c8.4,0,14.94-2.07,14.94-9.54s-6.95-9.13-15.56-9.13h-14.83ZM58.01,126.05h16.18c9.13,0,16.08-2.39,16.08-10.58,0-7.47-7.06-9.65-15.67-9.65h-16.6v20.23Z"/>
  <polygon class="st0" points="241.29 137.25 241.29 64.64 253.63 64.64 253.63 126.05 288.07 126.05 288.07 137.25 241.29 137.25"/>
  <path class="st0" d="M350.52,110.39v-11.2h28.94v25.52c-6.54,8.09-17.63,13.69-30.19,13.69-20.02,0-36.72-15.14-36.72-37.34s16.18-37.66,37.45-37.66c12.86,0,22.2,5.39,28.42,13.69l-8.09,8.3c-4.25-6.12-10.68-10.68-20.12-10.68-14.32,0-25,11.1-25,26.35s10.68,26.04,25.52,26.04c6.74,0,12.14-2.18,16.49-6.02v-10.68h-16.7Z"/>
  <path class="st0" d="M196.97,73.01h0c-.17-.16-.27-.38-.28-.57l4.21-9.88c.28-.76-.19-1.57-1.48-2.55-1.46-1.1-2.55-1.41-3.28-.87l-8.57,6.91c-.2.06-.42.04-.61-.05-5.09-2.48-10.06-3.53-16.6-3.53-21.48,0-37.67,16.52-37.67,38.43,0,11.28,3.55,20.52,10.54,27.45.19.19.28.44.26.66v.11c-.24,1.08-1.25,3.22-2.22,5.29-.79,1.67-1.6,3.4-2.11,4.79-.29.77.19,1.58,1.5,2.56.98.73,1.8,1.11,2.44,1.11.31,0,.59-.09.82-.26l8.67-7.11c.17-.02.35,0,.52.09,5.16,2.66,10.47,3.85,17.24,3.85,21.66,0,38-16.57,38-38.54,0-11.27-3.94-20.91-11.39-27.88M196.58,100.89c0,15.93-11.08,27.94-25.78,27.94-4.09,0-7.97-.86-11.54-2.57l-.64-.31,31.35-43.89.49.62c3.94,4.95,6.12,11.41,6.12,18.2M149.63,117.79c-3.23-4.68-4.93-10.53-4.93-16.9,0-15.81,11.22-27.73,26.11-27.73,3.32,0,6.51.62,9.47,1.84l.7.29-30.87,43.21-.48-.7Z"/>
  <path class="st0" d="M61.17,183.3l1.47,1.68c-.98,1.12-2.17,2-3.57,2.64-1.4.64-2.89.96-4.47.96-3.02,0-5.53-1.05-7.55-3.15-2.01-2.1-3.01-4.65-3.01-7.65s.99-5.59,2.99-7.71c1.99-2.12,4.47-3.18,7.42-3.18,3.3,0,5.92,1.2,7.86,3.6l-1.53,1.62c-1.6-2.06-3.71-3.09-6.33-3.09-2.32,0-4.26.84-5.8,2.52-1.55,1.68-2.33,3.76-2.33,6.24s.78,4.5,2.35,6.17c1.57,1.67,3.55,2.5,5.93,2.5,2.76,0,4.95-1.05,6.57-3.15"/>
  <path class="st0" d="M97.58,177.72c0-3,1-5.55,3-7.66,2-2.11,4.48-3.17,7.44-3.17s5.49,1.06,7.51,3.17c2.03,2.11,3.04,4.66,3.04,7.66s-1.01,5.61-3.03,7.71c-2.02,2.1-4.53,3.15-7.53,3.15s-5.46-1.05-7.46-3.15c-1.99-2.1-2.99-4.67-2.99-7.71M99.86,177.72c0,2.5.77,4.58,2.31,6.24,1.54,1.66,3.53,2.49,5.97,2.49s4.37-.83,5.89-2.49c1.53-1.66,2.29-3.74,2.29-6.24s-.76-4.52-2.29-6.19c-1.53-1.67-3.49-2.51-5.89-2.51s-4.4.84-5.96,2.51c-1.55,1.67-2.32,3.73-2.32,6.19"/>
  <polygon class="st0" points="171.5 188.25 169.13 188.25 157.19 171.24 157.19 188.25 154.91 188.25 154.91 167.25 157.25 167.25 169.19 184.32 169.19 167.25 171.5 167.25 171.5 188.25"/>
  <path class="st0" d="M224.98,183.3l1.47,1.68c-.98,1.12-2.17,2-3.57,2.64-1.4.64-2.89.96-4.47.96-3.02,0-5.54-1.05-7.55-3.15-2.01-2.1-3.01-4.65-3.01-7.65s.99-5.59,2.99-7.71c1.99-2.12,4.46-3.18,7.43-3.18,3.3,0,5.92,1.2,7.86,3.6l-1.53,1.62c-1.6-2.06-3.71-3.09-6.33-3.09-2.32,0-4.26.84-5.8,2.52-1.55,1.68-2.33,3.76-2.33,6.24s.79,4.5,2.35,6.17c1.57,1.67,3.54,2.5,5.93,2.5,2.76,0,4.95-1.05,6.57-3.15"/>
  <polygon class="st0" points="276.21 188.25 262.44 188.25 262.44 167.25 276.21 167.25 276.21 169.41 264.72 169.41 264.72 176.46 275.88 176.46 275.88 178.62 264.72 178.62 264.72 186.09 276.21 186.09 276.21 188.25"/>
  <path class="st0" d="M320.76,180.51h-5.04v7.74h-2.28v-21h7.32c2.34,0,4.21.6,5.6,1.8,1.39,1.2,2.08,2.81,2.08,4.83s-.69,3.63-2.07,4.83c-1.38,1.2-3.25,1.8-5.61,1.8M321.09,169.41h-5.37v8.97h5.37c1.56,0,2.79-.38,3.7-1.14.91-.76,1.36-1.88,1.36-3.36s-.45-2.52-1.36-3.3-2.14-1.17-3.7-1.17"/>
  <polygon class="st0" points="362.87 169.41 362.87 167.25 378.47 167.25 378.47 169.41 371.81 169.41 371.81 188.25 369.53 188.25 369.53 169.41 362.87 169.41"/>
</svg>