<?xml version="1.0" encoding="UTF-8"?>
<svg id="Capa_1" xmlns="http://www.w3.org/2000/svg" version="1.1" viewBox="0 0 423.5 247.46">
  <!-- Generator: Adobe Illustrator 30.0.0, SVG Export Plug-In . SVG Version: 2.1.1 Build 123)  -->
  <defs>
    <style>
      .st0 {
        fill: #2d2a26;
      }
    </style>
  </defs>
  <g>
    <path class="st0" d="M25.32,138.91V57.4h34c16.53,0,28.06,6.63,28.06,21.54,0,6.29-2.56,12.7-9.19,17.47,7.91,4.89,11.18,11.99,11.18,19.33,0,14.32-11.07,23.17-28.06,23.17H25.32ZM39.18,69.97v20.96h17.35c9.43,0,16.77-2.32,16.77-10.71s-7.8-10.25-17.47-10.25h-16.66ZM39.18,126.33h18.16c10.25,0,18.05-2.68,18.05-11.88,0-8.38-7.91-10.83-17.58-10.83h-18.63s0,22.71,0,22.71Z"/>
    <path class="st0" d="M244.91,138.91V57.4h13.85v68.93h38.66v12.57h-52.51,0Z"/>
    <path class="st0" d="M367.52,108.76v-12.57h32.48v28.65c-7.33,9.08-19.79,15.37-33.89,15.37-22.47,0-41.22-17.01-41.22-41.91s18.16-42.27,42.04-42.27c14.43,0,24.92,6.05,31.9,15.37l-9.08,9.32c-4.77-6.87-12-12-22.6-12-16.06,0-28.06,12.46-28.06,29.58s12,29.23,28.65,29.23c7.57,0,13.63-2.45,18.51-6.76v-11.99h-18.75.01Z"/>
    <path class="st0" d="M195.16,66.8h0c-.19-.18-.3-.43-.31-.64l4.73-11.09c.31-.85-.21-1.76-1.66-2.86-1.64-1.23-2.86-1.58-3.68-.98l-9.62,7.76c-.22.07-.47.04-.68-.07-5.71-2.78-11.29-3.96-18.63-3.96-24.11,0-42.28,18.54-42.28,43.14,0,12.66,3.98,23.03,11.83,30.81.21.21.31.49.29.74l-.02.12c-.26,1.21-1.38,3.61-2.47,5.94-.88,1.87-1.8,3.82-2.37,5.38-.33.86.21,1.77,1.68,2.87,1.1.82,2.02,1.25,2.74,1.25.35,0,.66-.1.92-.29l9.73-7.98c.19-.02.39,0,.58.1,5.79,2.99,11.75,4.32,19.35,4.32,24.31,0,42.65-18.6,42.65-43.26,0-12.65-4.42-23.47-12.78-31.29h.01ZM194.73,98.09c0,17.88-12.44,31.36-28.94,31.36-4.59,0-8.95-.97-12.95-2.88l-.72-.35,35.19-49.27.55.7c4.43,5.56,6.87,12.81,6.87,20.43h0ZM142.02,117.06c-3.63-5.25-5.53-11.82-5.53-18.97,0-17.75,12.59-31.13,29.31-31.13,3.73,0,7.31.7,10.63,2.07l.77.33-34.64,48.5-.54-.79h0Z"/>
  </g>
  <g>
    <path class="st0" d="M42.73,190.6l1.65,1.89c-1.1,1.26-2.44,2.24-4.01,2.96s-3.24,1.08-5.02,1.08c-3.39,0-6.22-1.18-8.47-3.54-2.26-2.36-3.38-5.22-3.38-8.59s1.12-6.27,3.36-8.65c2.23-2.38,5.01-3.57,8.33-3.57,3.7,0,6.65,1.35,8.82,4.04l-1.72,1.82c-1.8-2.31-4.16-3.47-7.11-3.47-2.6,0-4.77.94-6.51,2.83-1.74,1.89-2.62,4.22-2.62,7s.88,5.05,2.64,6.93,3.97,2.81,6.66,2.81c3.1,0,5.56-1.18,7.37-3.54h0Z"/>
    <path class="st0" d="M83.6,184.33c0-3.37,1.12-6.23,3.37-8.61,2.24-2.37,5.03-3.56,8.35-3.56s6.15,1.19,8.43,3.56,3.41,5.24,3.41,8.61-1.13,6.3-3.4,8.65-5.08,3.54-8.45,3.54-6.13-1.18-8.37-3.54c-2.23-2.36-3.36-5.24-3.36-8.65h.02ZM86.16,184.33c0,2.81.86,5.14,2.59,7s3.96,2.79,6.7,2.79,4.91-.93,6.61-2.79c1.72-1.86,2.57-4.2,2.57-7s-.85-5.07-2.57-6.95-3.93-2.82-6.61-2.82-4.95.94-6.69,2.82-2.62,4.19-2.62,6.95h.01Z"/>
    <path class="st0" d="M166.57,196.15h-2.66l-13.4-19.09v19.09h-2.56v-23.57h2.63l13.4,19.16v-19.16h2.59v23.57Z"/>
    <path class="st0" d="M226.6,190.6l1.65,1.89c-1.1,1.26-2.44,2.24-4.01,2.96-1.57.72-3.24,1.08-5.02,1.08-3.39,0-6.22-1.18-8.47-3.54-2.26-2.36-3.38-5.22-3.38-8.59s1.12-6.27,3.36-8.65c2.23-2.38,5.01-3.57,8.33-3.57,3.7,0,6.65,1.35,8.82,4.04l-1.72,1.82c-1.8-2.31-4.16-3.47-7.11-3.47-2.6,0-4.77.94-6.51,2.83-1.74,1.89-2.62,4.22-2.62,7s.88,5.05,2.64,6.93,3.97,2.81,6.66,2.81c3.1,0,5.56-1.18,7.37-3.54h0Z"/>
    <path class="st0" d="M284.1,196.15h-15.46v-23.57h15.46v2.42h-12.9v7.91h12.53v2.42h-12.53v8.38h12.9v2.42h0Z"/>
    <path class="st0" d="M334.11,187.46h-5.66v8.69h-2.56v-23.57h8.22c2.63,0,4.73.67,6.29,2.02s2.33,3.15,2.33,5.42-.77,4.07-2.32,5.42-3.65,2.02-6.3,2.02h0ZM334.48,175h-6.03v10.07h6.03c1.75,0,3.13-.43,4.16-1.28s1.54-2.11,1.54-3.77-.52-2.83-1.54-3.7-2.4-1.31-4.16-1.31Z"/>
    <path class="st0" d="M381.38,175v-2.42h17.51v2.42h-7.48v21.15h-2.56v-21.15h-7.48Z"/>
  </g>
</svg>