<?xml version="1.0" encoding="UTF-8"?>
<svg id="Capa_1" xmlns="http://www.w3.org/2000/svg" version="1.1" viewBox="0 0 510.24 247.46">
  <!-- Generator: Adobe Illustrator 30.0.0, SVG Export Plug-In . SVG Version: 2.1.1 Build 123)  -->
  <defs>
    <style>
      .st0 {
        fill: #2d2a26;
      }
    </style>
  </defs>
  <path class="st0" d="M88.22,160.11v-72.61h30.29c14.73,0,25,5.91,25,19.19,0,5.6-2.28,11.31-8.19,15.56,7.05,4.36,9.96,10.68,9.96,17.22,0,12.76-9.86,20.64-25,20.64h-32.05ZM100.56,98.7v18.67h15.46c8.4,0,14.94-2.07,14.94-9.54s-6.95-9.13-15.56-9.13h-14.83ZM100.56,148.91h16.18c9.13,0,16.08-2.39,16.08-10.58,0-7.47-7.05-9.65-15.66-9.65h-16.6v20.23Z"/>
  <path class="st0" d="M283.85,160.11v-72.61h12.34v61.41h34.44v11.2h-46.78Z"/>
  <path class="st0" d="M393.08,133.24v-11.2h28.94v25.52c-6.53,8.09-17.63,13.69-30.19,13.69-20.02,0-36.72-15.15-36.72-37.34s16.18-37.66,37.45-37.66c12.86,0,22.2,5.39,28.42,13.69l-8.09,8.3c-4.25-6.12-10.69-10.69-20.13-10.69-14.32,0-25,11.1-25,26.35s10.69,26.04,25.52,26.04c6.74,0,12.14-2.18,16.49-6.02v-10.68h-16.7Z"/>
  <path class="st0" d="M239.53,95.87h0c-.17-.16-.27-.38-.28-.57l4.21-9.88c.28-.76-.19-1.57-1.48-2.55-1.46-1.1-2.55-1.41-3.28-.87l-8.57,6.91c-.2.06-.42.04-.61-.06-5.09-2.48-10.06-3.53-16.6-3.53-21.48,0-37.67,16.52-37.67,38.43,0,11.28,3.55,20.52,10.54,27.45.19.19.28.44.26.66l-.02.11c-.23,1.08-1.23,3.22-2.2,5.29-.78,1.67-1.6,3.4-2.11,4.79-.29.77.19,1.58,1.5,2.56.98.73,1.8,1.11,2.44,1.11.31,0,.59-.09.82-.26l8.67-7.11c.17-.02.35,0,.52.09,5.16,2.66,10.47,3.85,17.24,3.85,21.66,0,38-16.57,38-38.54,0-11.27-3.94-20.91-11.39-27.88ZM239.14,123.75c0,15.93-11.08,27.94-25.78,27.94-4.09,0-7.97-.86-11.54-2.57l-.64-.31,31.35-43.89.49.62c3.95,4.95,6.12,11.41,6.12,18.2ZM192.18,140.65c-3.23-4.68-4.93-10.53-4.93-16.9,0-15.81,11.22-27.73,26.11-27.73,3.32,0,6.51.62,9.47,1.84l.69.29-30.86,43.21-.48-.7Z"/>
</svg>